<svg xmlns="http://www.w3.org/2000/svg" width="190" height="40" viewBox="0 0 190 40"><defs><style>.cls-1{fill:#fec602;}</style></defs><g id="Content"><polygon class="cls-1" points="102.28 23.95 110.77 16.46 99.5 15.39 95 5 90.5 15.39 79.23 16.46 87.72 23.95 85.25 35 95 29.24 104.75 35 102.28 23.95"/><polygon class="cls-1" points="140.21 23.95 148.7 16.46 137.43 15.39 132.93 5 128.43 15.39 117.16 16.46 125.65 23.95 123.18 35 132.93 29.24 142.68 35 140.21 23.95"/><polygon class="cls-1" points="178.14 23.95 186.63 16.46 175.36 15.39 170.86 5 166.36 15.39 155.09 16.46 163.58 23.95 161.11 35 170.86 29.24 180.61 35 178.14 23.95"/><polygon class="cls-1" points="26.42 23.95 34.91 16.46 23.64 15.39 19.14 5 14.64 15.39 3.37 16.46 11.86 23.95 9.39 35 19.14 29.24 28.89 35 26.42 23.95"/><polygon class="cls-1" points="64.35 23.95 72.84 16.46 61.57 15.39 57.07 5 52.57 15.39 41.3 16.46 49.79 23.95 47.32 35 57.07 29.24 66.82 35 64.35 23.95"/></g></svg>