<svg xmlns="http://www.w3.org/2000/svg" width="70" height="70" viewBox="0 0 70 70"><defs><style>.cls-1{fill:#9db84c;}.cls-2{fill:#508b22;}</style></defs><g id="Content"><path class="cls-1" d="M35,69.59c-1.51,0-2.79-1-3.93-1.85a6.59,6.59,0,0,0-2.29-1.35,6.81,6.81,0,0,0-2.73.37c-1.42.36-2.89.74-4.24.18a6.76,6.76,0,0,1-2.87-3.2,7,7,0,0,0-1.61-2.16,6.72,6.72,0,0,0-2.63-.71c-1.47-.21-3-.43-4-1.48s-1.23-2.55-1.42-4a7,7,0,0,0-.67-2.64,6.94,6.94,0,0,0-2.15-1.64c-1.28-.75-2.6-1.53-3.16-2.91S3.13,45.37,3.5,44a7,7,0,0,0,.39-2.73,6.72,6.72,0,0,0-1.35-2.3C1.68,37.79.71,36.5.71,35s1-2.79,1.83-3.92a6.72,6.72,0,0,0,1.35-2.3,6.84,6.84,0,0,0-.39-2.73c-.37-1.42-.76-2.89-.21-4.23s1.88-2.16,3.16-2.91A6.82,6.82,0,0,0,8.6,17.27a6.85,6.85,0,0,0,.67-2.64c.19-1.47.39-3,1.42-4s2.54-1.27,4-1.48a6.72,6.72,0,0,0,2.63-.71,6.8,6.8,0,0,0,1.61-2.16,6.76,6.76,0,0,1,2.87-3.2c1.35-.56,2.82-.18,4.24.18a6.84,6.84,0,0,0,2.74.37,6.65,6.65,0,0,0,2.28-1.35C32.21,1.39,33.49.41,35,.41s2.79,1,3.93,1.85a6.59,6.59,0,0,0,2.29,1.35A6.81,6.81,0,0,0,44,3.24c1.42-.36,2.89-.74,4.24-.18a6.76,6.76,0,0,1,2.87,3.2,7,7,0,0,0,1.61,2.16,6.72,6.72,0,0,0,2.63.71c1.47.21,3,.43,4,1.48s1.23,2.55,1.42,4a7,7,0,0,0,.67,2.64,6.94,6.94,0,0,0,2.15,1.64c1.28.75,2.6,1.53,3.16,2.91s.16,2.81-.21,4.23a7,7,0,0,0-.39,2.73,6.72,6.72,0,0,0,1.35,2.3c.86,1.13,1.83,2.42,1.83,3.92s-1,2.79-1.83,3.92a6.72,6.72,0,0,0-1.35,2.3A6.84,6.84,0,0,0,66.5,44c.37,1.42.76,2.89.21,4.23s-1.88,2.16-3.16,2.91a6.82,6.82,0,0,0-2.15,1.64,6.85,6.85,0,0,0-.67,2.64c-.19,1.47-.39,3-1.42,4s-2.54,1.27-4,1.48a6.72,6.72,0,0,0-2.63.71,6.8,6.8,0,0,0-1.61,2.16,6.76,6.76,0,0,1-2.87,3.2c-1.35.56-2.82.18-4.24-.18a6.84,6.84,0,0,0-2.74-.37,6.65,6.65,0,0,0-2.28,1.35C37.79,68.61,36.51,69.59,35,69.59Zm-6.7-5.24a4.3,4.3,0,0,1,.88.08,8.12,8.12,0,0,1,3.11,1.72A5.34,5.34,0,0,0,35,67.59a5.34,5.34,0,0,0,2.71-1.44,8.12,8.12,0,0,1,3.11-1.72,8.24,8.24,0,0,1,3.63.39,5.21,5.21,0,0,0,3,.27c.75-.31,1.31-1.3,1.91-2.34a8.12,8.12,0,0,1,2.23-2.83,8.26,8.26,0,0,1,3.47-1,5.38,5.38,0,0,0,2.87-.9,5.39,5.39,0,0,0,.86-2.87,8.24,8.24,0,0,1,1-3.5,8.12,8.12,0,0,1,2.81-2.25c1-.62,2-1.19,2.32-1.95a5.23,5.23,0,0,0-.3-3,8.11,8.11,0,0,1-.41-3.63,8,8,0,0,1,1.71-3.13A5.32,5.32,0,0,0,67.29,35a5.37,5.37,0,0,0-1.42-2.71,7.87,7.87,0,0,1-1.72-3.13,8.11,8.11,0,0,1,.41-3.63,5.23,5.23,0,0,0,.3-3c-.31-.76-1.29-1.33-2.32-1.95a8,8,0,0,1-2.8-2.25,8.11,8.11,0,0,1-1-3.49A5.4,5.4,0,0,0,57.89,12a5.32,5.32,0,0,0-2.87-.9,8.26,8.26,0,0,1-3.47-1,8.12,8.12,0,0,1-2.23-2.83c-.6-1-1.16-2-1.91-2.34a5.21,5.21,0,0,0-3,.27,8.24,8.24,0,0,1-3.63.39,8.12,8.12,0,0,1-3.11-1.72A5.34,5.34,0,0,0,35,2.41a5.34,5.34,0,0,0-2.71,1.44,8.12,8.12,0,0,1-3.11,1.72,8.24,8.24,0,0,1-3.63-.39,5.21,5.21,0,0,0-3-.27c-.75.31-1.31,1.3-1.91,2.34a8.12,8.12,0,0,1-2.23,2.83,8.26,8.26,0,0,1-3.47,1,5.38,5.38,0,0,0-2.87.9,5.39,5.39,0,0,0-.86,2.87,8.24,8.24,0,0,1-1,3.5,8.12,8.12,0,0,1-2.81,2.25c-1,.62-2,1.19-2.32,1.95a5.23,5.23,0,0,0,.3,3,8.11,8.11,0,0,1,.41,3.63,7.87,7.87,0,0,1-1.72,3.13A5.37,5.37,0,0,0,2.71,35a5.37,5.37,0,0,0,1.42,2.71,7.87,7.87,0,0,1,1.72,3.13,8.11,8.11,0,0,1-.41,3.63,5.23,5.23,0,0,0-.3,3c.31.76,1.29,1.33,2.32,1.95a8,8,0,0,1,2.8,2.25,8.11,8.11,0,0,1,1,3.49A5.4,5.4,0,0,0,12.11,58a5.32,5.32,0,0,0,2.87.9,8.26,8.26,0,0,1,3.47,1,8.12,8.12,0,0,1,2.23,2.83c.6,1,1.16,2,1.91,2.34a5.21,5.21,0,0,0,3-.27A11,11,0,0,1,28.3,64.35Z"/><polygon class="cls-2" points="28.6 52.17 15.28 38.73 20.12 33.92 28.6 42.48 50.89 19.98 55.73 24.78 28.6 52.17"/></g></svg>