<svg xmlns="http://www.w3.org/2000/svg" width="70" height="70" viewBox="0 0 70 70"><defs><style>.cls-1{fill:#9db84c;}.cls-2{fill:#508b22;}</style></defs><g id="Content"><path class="cls-1" d="M35,68.5A33.5,33.5,0,1,1,68.5,35,33.54,33.54,0,0,1,35,68.5Zm0-65A31.5,31.5,0,1,0,66.5,35,31.53,31.53,0,0,0,35,3.5Z"/><path class="cls-2" d="M46.22,47.78,42.6,41.7a2.26,2.26,0,0,0-4.33,0L38,47.78H22.5V52.2h25V47.78Zm-5.76-4.46a1.11,1.11,0,1,1,1.11-1.11A1.11,1.11,0,0,1,40.46,43.32Z"/><rect class="cls-2" x="23.88" y="52.84" width="5.02" height="1.61"/><rect class="cls-2" x="41.1" y="52.84" width="5.02" height="1.61"/><path class="cls-2" d="M31.27,43.34l3.37.87h0a9.65,9.65,0,0,0,2.39.29h.22l.13-2.8h-.32a7.14,7.14,0,0,1-1.45-.15l0-.16-.32-.13.3-1L24.17,37l-.89,3.12,8.3,2.36Z"/><path class="cls-2" d="M39,22.55a3,3,0,1,0,0,6A3,3,0,0,0,40.64,28a7.32,7.32,0,0,1,3.16,9.26,7.33,7.33,0,0,1-1.7,2.44,3.16,3.16,0,0,1,1.29,1.63l.38.63A10.13,10.13,0,0,0,42,25.53,3,3,0,0,0,39,22.55Zm-.08,4.16a1.27,1.27,0,1,1,1.26-1.26A1.26,1.26,0,0,1,38.88,26.71Z"/><path class="cls-2" d="M30.19,34.8l.75.22-.29,1,2.27.64.3-1.05.76.22.33-1.17,1.92.55L37.16,32l-.6-.17.8-2.8A3.84,3.84,0,0,1,39,21.69a3.59,3.59,0,0,1,.47,0l.15-.52,1.07.3.7-2.44-2.54-.72L40,14.05l.37.1.4-1.4-4.27-1.21-.39,1.4.37.11-1.22,4.29-2.53-.72-.7,2.44,1.08.31L30.12,30l-.6-.17-.93,3.26,1.93.55Z"/></g></svg>