<svg xmlns="http://www.w3.org/2000/svg" width="70" height="70" viewBox="0 0 70 70"><defs><style>.cls-1{fill:#9db84c;}.cls-2{fill:#508b22;}</style></defs><g id="Content"><path class="cls-1" d="M35,68.5A33.5,33.5,0,1,1,68.55,35,33.56,33.56,0,0,1,35,68.5Zm0-65A31.5,31.5,0,1,0,66.55,35,31.56,31.56,0,0,0,35,3.5Z"/><path class="cls-2" d="M16,23.55c1.06-.88,7.31,2.55,16.82,2.55,9.07,0,18-11.52,19.9-10.29s-4.58,19-12.94,23.3c4,4.31,7.48,16.35,5.72,16.35S40,46.41,34.18,46.41c-4.75,0-8.1,4.65-9.42,4.13s1.59-8.27,4.4-10.9C16.84,32.87,15,24.43,16,23.55Z"/><ellipse class="cls-2" cx="33.39" cy="19.43" rx="3.04" ry="3.97"/></g></svg>